<svg version="1.0" xmlns="http://www.w3.org/2000/svg" width="700pt" height="700pt" viewBox="0 0 700 700"><g transform="translate(0.000000,700.000000) scale(0.100000,-0.100000)" fill="#000" stroke="none"><path d="M5743 6420c-18-10-37-29-43-40-8-15-12-125-12-356v-334l-31-1c-108-3-296-19-342-29-22-5-56-11-75-14-416-67-882-292-1265-611-2e2-166-448-425-619-645-80-104-248-349-283-413-8-16-18-5-68 74-55 87-231 338-244 349-4 3-22 25-41 50-149 196-445 494-635 638-33 25-62 49-65 52-11 12-219 149-287 189-94 54-275 143-338 166-27 10-54 22-60 25-35 24-383 120-485 134-81 11-124 17-160 22-19 2-142 7-272 9-264 4-289 0-349-59-99-96-85-261 29-336 54-36 74-38 342-44 118-2 224-6 235-9 11-3 42-8 68-11 43-6 96-16 165-30 1e2-21 312-97 431-154 120-57 326-181 406-244 205-160 337-281 469-428 27-30 63-71 81-90 135-150 354-471 493-723l32-57-23-43c-13-23-34-60-47-82-224-401-566-819-870-1065-30-25-57-47-60-50-13-14-154-114-230-163-225-145-473-247-732-302-158-33-188-36-453-41-226-5-231-5-285-32-169-85-152-335 28-397 38-12 85-14 271-11 125 3 244 7 266 10 22 3 60 9 85 12 25 3 59 7 75 10 17 2 41 6 55 9 14 3 34 7 45 9 116 23 307 81 435 134 427 174 798 446 1185 867 40 43 260 317 285 354 8 13 33 48 55 79 23 32 67 99 99 149l58 93 62-98c256-401 593-779 932-1043 212-166 525-343 749-425 276-1e2 557-156 807-158l76-1 1-338c0-371 0-370 60-401 31-17 85-13 109 6 185 147 1043 868 1060 891 24 34 25 74 3 115-6 11-46 49-89 84-42 34-79 65-82 68-3 3-113 95-245 205-282 234-6e2 499-633 527-52 43-133 32-165-22-15-25-17-68-19-365l-1-337-106 6c-145 9-179 13-318 40-190 38-465 146-648 256-27 16-57 33-65 37-18 8-133 88-175 120-16 13-35 27-40 31-88 63-163 130-306 272-205 204-396 444-551 692-88 142-168 283-168 298 0 6 19 43 41 83 23 40 53 92 67 117 66 117 304 458 364 521 7 8 37 43 67 79 146 175 436 437 606 549 39 25 72 49 75 52 15 18 242 136 336 175 60 25 118 49 129 54 57 26 284 82 380 95 22 3 49 7 60 10 11 2 72 7 136 10l116 7 1-263c1-145 1-299 2-341 0-67 3-80 26-107 30-35 83-49 121-32 15 7 264 210 554 452 544 453 556 465 544 524-2 11-4 23-4 27-2 13-45 53-161 148-63 52-126 105-140 116-27 23-112 95-145 123-11 9-58 48-105 86-47 38-87 72-90 75-5 6-401 334-431 358-29 22-82 23-116 2z"/></g></svg>